<?xml version="1.0" encoding="utf-8"?>
<!-- Generator: Adobe Illustrator 16.0.0, SVG Export Plug-In . SVG Version: 6.00 Build 0)  -->
<!DOCTYPE svg PUBLIC "-//W3C//DTD SVG 1.1//EN" "http://www.w3.org/Graphics/SVG/1.1/DTD/svg11.dtd">
<svg version="1.1" id="Layer_1" xmlns="http://www.w3.org/2000/svg" xmlns:xlink="http://www.w3.org/1999/xlink" x="0px" y="0px"
	 width="60px" height="380px" viewBox="0 0 60 380" enable-background="new 0 0 60 380" xml:space="preserve">
<rect id="background" fill="#E6E6E6" width="60" height="380"/>
<g>
	<path fill="#231F20" d="M39.241,329.973c-0.418,0.418-0.925,0.646-1.603,0.646c-0.683,0-1.191-0.229-1.609-0.646
		c-0.604-0.604-0.584-1.344-0.584-2.369c0-1.024-0.021-1.768,0.584-2.367c0.418-0.418,0.934-0.651,1.609-0.651
		c0.674,0,1.185,0.233,1.603,0.651c0.602,0.601,0.593,1.343,0.593,2.367C39.834,328.631,39.843,329.371,39.241,329.973z
		 M38.382,325.938c-0.165-0.194-0.424-0.318-0.741-0.318c-0.312,0-0.584,0.124-0.75,0.318c-0.227,0.246-0.285,0.523-0.285,1.664
		c0,1.146,0.062,1.42,0.285,1.67c0.166,0.191,0.438,0.318,0.75,0.318c0.317,0,0.576-0.127,0.741-0.318
		c0.226-0.25,0.293-0.524,0.293-1.67C38.675,326.463,38.607,326.184,38.382,325.938z"/>
	<path fill="#231F20" d="M43.113,330.623c-1.217,0-2.188-0.824-2.188-2.085v-3.903h1.159v3.86c0,0.685,0.398,1.095,1.023,1.095
		s1.035-0.41,1.035-1.095v-3.86h1.147v3.903C45.301,329.799,44.333,330.623,43.113,330.623z"/>
	<path fill="#231F20" d="M48.863,325.67v4.904h-1.158v-4.904h-1.553v-1.035h4.263v1.035H48.863z"/>
</g>
<g>
	<path fill="#231F20" d="M12.942,330.574v-5.939h1.159v5.939H12.942z"/>
	<path fill="#231F20" d="M19,330.574l-2.354-3.646v3.646h-1.159v-5.939h1.035l2.352,3.643v-3.643h1.159v5.939H19z"/>
</g>
<g>
	<rect x="3.144" y="254.439" fill="#BBBDBF" width="51.87" height="2.088"/>
</g>
<g>
	<rect x="3.144" y="153.159" fill="#BBBDBF" width="51.87" height="2.086"/>
</g>
<g id="decoupe" display="none">
	
		<path display="inline" fill="none" stroke="#ED312D" stroke-width="0.2835" stroke-linecap="round" stroke-linejoin="round" stroke-miterlimit="10" d="
		M17.525,371.131c0,2.613,2.116,4.73,4.732,4.73c2.612,0,4.731-2.117,4.731-4.73s-2.119-4.73-4.731-4.73
		C19.641,366.398,17.525,368.518,17.525,371.131"/>
	
		<path display="inline" fill="none" stroke="#ED312D" stroke-width="0.2835" stroke-linecap="round" stroke-linejoin="round" stroke-miterlimit="10" d="
		M17.525,8.873c0,2.613,2.116,4.731,4.732,4.731c2.612,0,4.731-2.118,4.731-4.731c0-2.614-2.119-4.732-4.731-4.732
		C19.641,4.14,17.525,6.258,17.525,8.873"/>
	
		<rect x="0.078" display="inline" fill="none" stroke="#ED312D" stroke-width="0.2835" stroke-linecap="round" stroke-linejoin="round" stroke-miterlimit="10" width="59.145" height="380.002"/>
	
		<path display="inline" fill="none" stroke="#ED312D" stroke-width="0.2835" stroke-linecap="round" stroke-linejoin="round" stroke-miterlimit="10" d="
		M33.499,328.547c0,5.146,4.171,9.316,9.313,9.316c5.146,0,9.312-4.172,9.312-9.316s-4.169-9.314-9.312-9.314
		C37.67,319.23,33.499,323.402,33.499,328.547"/>
	
		<path display="inline" fill="none" stroke="#ED312D" stroke-width="0.2835" stroke-linecap="round" stroke-linejoin="round" stroke-miterlimit="10" d="
		M7.175,328.547c0,5.146,4.17,9.316,9.315,9.316c5.145,0,9.314-4.172,9.314-9.316s-4.169-9.314-9.314-9.314
		C11.345,319.232,7.175,323.402,7.175,328.547"/>
	
		<path display="inline" fill="none" stroke="#ED312D" stroke-width="0.2835" stroke-linecap="round" stroke-linejoin="round" stroke-miterlimit="10" d="
		M33.499,290.99c0,5.146,4.171,9.316,9.313,9.316c5.146,0,9.312-4.178,9.312-9.316c0-5.145-4.169-9.315-9.312-9.315
		C37.669,281.675,33.499,285.846,33.499,290.99"/>
	
		<path display="inline" fill="none" stroke="#ED312D" stroke-width="0.2835" stroke-linecap="round" stroke-linejoin="round" stroke-miterlimit="10" d="
		M7.175,290.99c0,5.146,4.17,9.316,9.315,9.316c5.145,0,9.314-4.178,9.314-9.316c0-5.145-4.169-9.315-9.314-9.315
		C11.345,281.675,7.175,285.846,7.175,290.99"/>
	
		<path display="inline" fill="none" stroke="#ED312D" stroke-width="0.2835" stroke-linecap="round" stroke-linejoin="round" stroke-miterlimit="10" d="
		M24.918,266.578c0,2.613,2.117,4.73,4.731,4.73c2.613,0,4.732-2.117,4.732-4.73c0-2.614-2.119-4.73-4.732-4.73
		S24.918,263.964,24.918,266.578"/>
	
		<path display="inline" fill="none" stroke="#ED312D" stroke-width="0.2835" stroke-linecap="round" stroke-linejoin="round" stroke-miterlimit="10" d="
		M33.499,227.145c0,5.146,4.171,9.314,9.313,9.314c5.146,0,9.312-4.171,9.312-9.314c0-5.145-4.169-9.312-9.312-9.312
		C37.67,217.829,33.499,222,33.499,227.145"/>
	
		<path display="inline" fill="none" stroke="#ED312D" stroke-width="0.2835" stroke-linecap="round" stroke-linejoin="round" stroke-miterlimit="10" d="
		M7.175,227.145c0,5.146,4.17,9.314,9.315,9.314c5.145,0,9.314-4.171,9.314-9.314c0-5.145-4.169-9.312-9.314-9.312
		C11.345,217.83,7.175,222,7.175,227.145"/>
	
		<path display="inline" fill="none" stroke="#ED312D" stroke-width="0.2835" stroke-linecap="round" stroke-linejoin="round" stroke-miterlimit="10" d="
		M33.499,189.587c0,5.144,4.171,9.313,9.313,9.313c5.146,0,9.312-4.17,9.312-9.313c0-5.144-4.169-9.316-9.312-9.316
		C37.669,180.271,33.499,184.443,33.499,189.587"/>
	
		<path display="inline" fill="none" stroke="#ED312D" stroke-width="0.2835" stroke-linecap="round" stroke-linejoin="round" stroke-miterlimit="10" d="
		M7.175,189.587c0,5.144,4.17,9.313,9.315,9.313c5.145,0,9.314-4.17,9.314-9.313c0-5.144-4.169-9.316-9.314-9.316
		C11.345,180.271,7.175,184.443,7.175,189.587"/>
	
		<path display="inline" fill="none" stroke="#ED312D" stroke-width="0.2835" stroke-linecap="round" stroke-linejoin="round" stroke-miterlimit="10" d="
		M24.918,165.175c0,2.613,2.117,4.732,4.731,4.732c2.613,0,4.732-2.119,4.732-4.732c0-2.613-2.119-4.731-4.732-4.731
		S24.918,162.562,24.918,165.175"/>
	
		<path display="inline" fill="none" stroke="#ED312D" stroke-width="0.2835" stroke-linecap="round" stroke-linejoin="round" stroke-miterlimit="10" d="
		M33.499,125.741c0,5.145,4.171,9.316,9.313,9.316c5.146,0,9.312-4.171,9.312-9.316c0-5.144-4.169-9.314-9.312-9.314
		C37.67,116.426,33.499,120.597,33.499,125.741"/>
	
		<path display="inline" fill="none" stroke="#ED312D" stroke-width="0.2835" stroke-linecap="round" stroke-linejoin="round" stroke-miterlimit="10" d="
		M7.175,125.741c0,5.145,4.17,9.316,9.315,9.316c5.145,0,9.314-4.171,9.314-9.316c0-5.144-4.169-9.314-9.314-9.314
		C11.345,116.427,7.175,120.597,7.175,125.741"/>
	
		<path display="inline" fill="none" stroke="#ED312D" stroke-width="0.2835" stroke-linecap="round" stroke-linejoin="round" stroke-miterlimit="10" d="
		M33.499,88.184c0,5.145,4.171,9.315,9.313,9.315c5.146,0,9.312-4.17,9.312-9.315s-4.169-9.314-9.312-9.314
		C37.669,78.87,33.499,83.04,33.499,88.184"/>
	
		<path display="inline" fill="none" stroke="#ED312D" stroke-width="0.2835" stroke-linecap="round" stroke-linejoin="round" stroke-miterlimit="10" d="
		M7.175,88.184c0,5.145,4.17,9.315,9.315,9.315c5.145,0,9.314-4.17,9.314-9.315s-4.169-9.314-9.314-9.314
		C11.345,78.87,7.175,83.04,7.175,88.184"/>
	
		<path display="inline" fill="none" stroke="#ED312D" stroke-width="0.2835" stroke-linecap="round" stroke-linejoin="round" stroke-miterlimit="10" d="
		M24.918,63.773c0,2.613,2.117,4.731,4.731,4.731c2.613,0,4.732-2.118,4.732-4.731s-2.119-4.732-4.732-4.732
		S24.918,61.16,24.918,63.773"/>
</g>
<g id="widgets" display="none">
	
		<rect id="PJ301_11_" x="4.99" y="76.917" display="inline" fill="none" stroke="#000000" stroke-miterlimit="10" width="23" height="23"/>
	
		<rect id="PJ301_9_" x="31.314" y="76.917" display="inline" fill="none" stroke="#000000" stroke-miterlimit="10" width="23" height="23"/>
	
		<rect id="PJ301_10_" x="4.99" y="114.241" display="inline" fill="none" stroke="#000000" stroke-miterlimit="10" width="23" height="23"/>
	
		<rect id="PJ301_8_" x="31.314" y="114.241" display="inline" fill="none" stroke="#000000" stroke-miterlimit="10" width="23" height="23"/>
	
		<rect id="PJ301_4_" x="4.99" y="177.875" display="inline" fill="none" stroke="#000000" stroke-miterlimit="10" width="23" height="23"/>
	
		<rect id="PJ301_3_" x="31.314" y="177.875" display="inline" fill="none" stroke="#000000" stroke-miterlimit="10" width="23" height="23"/>
	
		<rect id="PJ301_2_" x="4.99" y="215.2" display="inline" fill="none" stroke="#000000" stroke-miterlimit="10" width="23" height="23"/>
	
		<rect id="PJ301_1_" x="31.314" y="215.2" display="inline" fill="none" stroke="#000000" stroke-miterlimit="10" width="23" height="23"/>
	
		<rect id="PJ301_12_" x="4.99" y="279.896" display="inline" fill="none" stroke="#000000" stroke-miterlimit="10" width="23" height="23"/>
	
		<rect id="PJ301_7_" x="31.314" y="279.896" display="inline" fill="none" stroke="#000000" stroke-miterlimit="10" width="23" height="23"/>
	
		<rect id="PJ301_6_" x="4.99" y="317.223" display="inline" fill="none" stroke="#000000" stroke-miterlimit="10" width="23" height="23"/>
	
		<rect id="PJ301_5_" x="31.314" y="317.223" display="inline" fill="none" stroke="#000000" stroke-miterlimit="10" width="23" height="23"/>
	
		<rect id="SmallLight" x="26.149" y="60.272" display="inline" fill="none" stroke="#000000" stroke-miterlimit="10" width="7" height="7"/>
	
		<rect id="SmallLight_1_" x="26.149" y="161.676" display="inline" fill="none" stroke="#000000" stroke-miterlimit="10" width="7" height="7"/>
	
		<rect id="SmallLight_2_" x="26.149" y="263.078" display="inline" fill="none" stroke="#000000" stroke-miterlimit="10" width="7" height="7"/>
</g>
<line fill="none" stroke="#000000" stroke-miterlimit="10" x1="15.759" y1="306.982" x2="15.759" y2="277.482"/>
<line fill="none" stroke="#000000" stroke-miterlimit="10" x1="44.109" y1="306.982" x2="44.109" y2="277.482"/>
<line fill="none" stroke="#000000" stroke-miterlimit="10" x1="15.759" y1="277.482" x2="28.538" y2="277.482"/>
<line fill="none" stroke="#000000" stroke-miterlimit="10" x1="29.038" y1="282.822" x2="29.038" y2="271.984"/>
<line fill="none" stroke="#000000" stroke-miterlimit="10" x1="32.04" y1="282.822" x2="32.04" y2="271.984"/>
<line fill="none" stroke="#000000" stroke-miterlimit="10" x1="31.826" y1="277.482" x2="44.104" y2="277.482"/>
<g>
	<path fill="#231F20" d="M39.241,249.926c-0.418,0.418-0.925,0.646-1.603,0.646c-0.683,0-1.191-0.229-1.609-0.646
		c-0.604-0.604-0.584-1.344-0.584-2.369c0-1.023-0.021-1.768,0.584-2.367c0.418-0.418,0.934-0.65,1.609-0.65
		c0.674,0,1.185,0.232,1.603,0.65c0.602,0.602,0.593,1.344,0.593,2.367C39.834,248.584,39.843,249.324,39.241,249.926z
		 M38.382,245.891c-0.165-0.195-0.424-0.317-0.741-0.317c-0.312,0-0.584,0.122-0.75,0.317c-0.227,0.246-0.285,0.523-0.285,1.664
		c0,1.146,0.062,1.42,0.285,1.67c0.166,0.191,0.438,0.318,0.75,0.318c0.317,0,0.576-0.127,0.741-0.318
		c0.226-0.25,0.293-0.523,0.293-1.67C38.675,246.416,38.607,246.137,38.382,245.891z"/>
	<path fill="#231F20" d="M43.113,250.576c-1.217,0-2.188-0.824-2.188-2.085v-3.903h1.159v3.86c0,0.685,0.398,1.095,1.023,1.095
		s1.035-0.41,1.035-1.095v-3.86h1.147v3.903C45.301,249.752,44.333,250.576,43.113,250.576z"/>
	<path fill="#231F20" d="M48.863,245.623v4.904h-1.158v-4.904h-1.553v-1.035h4.263v1.035H48.863z"/>
</g>
<g>
	<path fill="#231F20" d="M12.942,250.527v-5.939h1.159v5.939H12.942z"/>
	<path fill="#231F20" d="M19,250.527l-2.354-3.646v3.646h-1.159v-5.939h1.035l2.352,3.643v-3.643h1.159v5.939H19z"/>
</g>
<line fill="none" stroke="#000000" stroke-miterlimit="10" x1="-34.273" y1="226.936" x2="-34.273" y2="197.436"/>
<line fill="none" stroke="#000000" stroke-miterlimit="10" x1="-5.922" y1="226.936" x2="-5.922" y2="197.436"/>
<line fill="none" stroke="#000000" stroke-miterlimit="10" x1="-34.273" y1="197.436" x2="-28.498" y2="197.436"/>
<line fill="none" stroke="#000000" stroke-miterlimit="10" x1="-28.498" y1="197.357" x2="-26.997" y2="193.939"/>
<line fill="none" stroke="#000000" stroke-miterlimit="10" x1="-23.995" y1="200.773" x2="-26.997" y2="193.939"/>
<line fill="none" stroke="#000000" stroke-miterlimit="10" x1="-23.996" y1="200.773" x2="-20.994" y2="193.939"/>
<line fill="none" stroke="#000000" stroke-miterlimit="10" x1="-17.992" y1="200.773" x2="-20.994" y2="193.939"/>
<line fill="none" stroke="#000000" stroke-miterlimit="10" x1="-17.992" y1="200.773" x2="-14.989" y2="193.939"/>
<line fill="none" stroke="#000000" stroke-miterlimit="10" x1="-11.986" y1="200.773" x2="-14.989" y2="193.939"/>
<line fill="none" stroke="#000000" stroke-miterlimit="10" x1="-11.985" y1="200.773" x2="-10.198" y2="197.357"/>
<line fill="none" stroke="#000000" stroke-miterlimit="10" x1="-10.198" y1="197.436" x2="-5.928" y2="197.436"/>
<g>
	<g>
		<line fill="none" stroke="#000000" stroke-miterlimit="10" x1="34.497" y1="190.495" x2="26.5" y2="205.251"/>
		<g>
			<polygon points="32.92,190.167 35.541,188.53 35.648,191.62 			"/>
		</g>
	</g>
</g>
<g>
	<path fill="none" stroke="#000000" stroke-width="0.5" stroke-miterlimit="10" d="M23.731,345.585h1.512l0.084-0.966
		c0.231-2.498,1.533-4.409,4.031-4.409c0.525,0,1.008,0.104,1.324,0.252l-0.357,2.036c-0.252-0.084-0.525-0.125-0.798-0.125
		c-0.987,0-1.428,0.943-1.575,2.204l-0.105,1.008h1.911v2.12h-2.058l-0.378,3.863c-0.21,2.227-0.987,4.137-3.59,4.137
		c-0.567,0-1.134-0.126-1.491-0.336l0.378-1.975c0.252,0.104,0.588,0.168,0.798,0.168c0.588,0,1.134-0.398,1.302-2.078l0.378-3.779
		h-1.365V345.585z"/>
	<path fill="none" stroke="#000000" stroke-width="0.5" stroke-miterlimit="10" d="M37.736,353.857
		c-0.272,0.125-0.965,0.293-1.742,0.293c-2.604,0-4.305-1.805-4.305-5.164c0-3.17,1.869-5.375,4.703-5.375
		c0.65,0,1.238,0.146,1.512,0.272l-0.356,2.162c-0.229-0.084-0.565-0.188-1.028-0.188c-1.322,0-2.1,1.26-2.1,3.045
		c0,1.869,0.775,3.002,2.059,3.002c0.397,0,0.733-0.062,1.027-0.209L37.736,353.857z"/>
</g>
<rect x="6.5" y="26.405" fill="none" width="46.999" height="35.001"/>
<g enable-background="new    ">
	<path fill="none" stroke="#000000" stroke-width="0.5" stroke-miterlimit="10" d="M33.505,42.773
		c-0.456,0.216-1.344,0.384-2.448,0.384c-4.128,0-6.097-3.408-6.097-7.992c0-6.097,3.384-8.473,6.528-8.473
		c1.104,0,1.873,0.216,2.185,0.432l-0.528,2.641c-0.359-0.168-0.768-0.312-1.464-0.312c-1.776,0-3.384,1.536-3.384,5.545
		c0,3.864,1.464,5.376,3.384,5.376c0.528,0,1.128-0.119,1.513-0.239L33.505,42.773z"/>
</g>
<line fill="none" stroke="#000000" stroke-miterlimit="10" x1="15.759" y1="226.936" x2="15.759" y2="197.436"/>
<line fill="none" stroke="#000000" stroke-miterlimit="10" x1="44.109" y1="226.936" x2="44.109" y2="197.436"/>
<line fill="none" stroke="#000000" stroke-miterlimit="10" x1="15.759" y1="197.436" x2="28.538" y2="197.436"/>
<line fill="none" stroke="#000000" stroke-miterlimit="10" x1="29.038" y1="202.775" x2="29.038" y2="191.938"/>
<line fill="none" stroke="#000000" stroke-miterlimit="10" x1="32.04" y1="202.775" x2="32.04" y2="191.938"/>
<line fill="none" stroke="#000000" stroke-miterlimit="10" x1="31.826" y1="197.436" x2="44.104" y2="197.436"/>
<line fill="none" stroke="#000000" stroke-miterlimit="10" x1="15.759" y1="123.871" x2="15.759" y2="94.369"/>
<line fill="none" stroke="#000000" stroke-miterlimit="10" x1="44.109" y1="123.871" x2="44.109" y2="94.369"/>
<line fill="none" stroke="#000000" stroke-miterlimit="10" x1="15.759" y1="94.369" x2="28.538" y2="94.369"/>
<line fill="none" stroke="#000000" stroke-miterlimit="10" x1="29.038" y1="102.711" x2="29.038" y2="85.87"/>
<line fill="none" stroke="#000000" stroke-width="3" stroke-miterlimit="10" x1="33.041" y1="99.709" x2="33.041" y2="88.871"/>
<line fill="none" stroke="#000000" stroke-miterlimit="10" x1="31.826" y1="94.369" x2="44.104" y2="94.369"/>
<path d="M15.891,141.612v2.464h2.376v0.902h-2.376v2.486h-0.924v-2.486H12.59v-0.902h2.376v-2.464H15.891z"/>
<path d="M47.243,143.911v1.034h-4.191v-1.034H47.243z"/>
</svg>
