<?xml version="1.0" encoding="utf-8"?>
<!-- Generator: Adobe Illustrator 16.0.0, SVG Export Plug-In . SVG Version: 6.00 Build 0)  -->
<!DOCTYPE svg PUBLIC "-//W3C//DTD SVG 1.1//EN" "http://www.w3.org/Graphics/SVG/1.1/DTD/svg11.dtd">
<svg version="1.1" id="Layer_1" xmlns="http://www.w3.org/2000/svg" xmlns:xlink="http://www.w3.org/1999/xlink" x="0px" y="0px"
	 width="60px" height="380px" viewBox="0 0 60 380" enable-background="new 0 0 60 380" xml:space="preserve">
<rect id="background" fill="#E6E6E6" width="60" height="380"/>
<g>
	<path fill="#231F20" d="M39.241,329.973c-0.418,0.418-0.925,0.646-1.603,0.646c-0.682,0-1.191-0.229-1.609-0.646
		c-0.604-0.604-0.584-1.344-0.584-2.37c0-1.024-0.021-1.767,0.584-2.367c0.418-0.418,0.934-0.651,1.609-0.651
		c0.674,0,1.185,0.233,1.603,0.651c0.602,0.601,0.593,1.343,0.593,2.367C39.834,328.631,39.843,329.371,39.241,329.973z
		 M38.382,325.937c-0.165-0.194-0.424-0.318-0.741-0.318c-0.312,0-0.584,0.124-0.75,0.318c-0.227,0.247-0.285,0.524-0.285,1.665
		c0,1.145,0.062,1.42,0.285,1.67c0.166,0.191,0.438,0.318,0.75,0.318c0.317,0,0.576-0.127,0.741-0.318
		c0.226-0.25,0.293-0.525,0.293-1.67C38.675,326.463,38.607,326.184,38.382,325.937z"/>
	<path fill="#231F20" d="M43.113,330.623c-1.217,0-2.188-0.824-2.188-2.085v-3.903h1.159v3.86c0,0.685,0.398,1.095,1.023,1.095
		s1.035-0.41,1.035-1.095v-3.86h1.148v3.903C45.301,329.799,44.333,330.623,43.113,330.623z"/>
	<path fill="#231F20" d="M48.863,325.67v4.904h-1.158v-4.904h-1.553v-1.035h4.263v1.035H48.863z"/>
</g>
<g>
	<path fill="#231F20" d="M12.942,330.574v-5.939h1.159v5.939H12.942z"/>
	<path fill="#231F20" d="M19,330.574l-2.354-3.646v3.646h-1.159v-5.939h1.035l2.352,3.643v-3.643h1.159v5.939H19z"/>
</g>
<g>
	<rect x="3.144" y="254.439" fill="#BBBDBF" width="51.87" height="2.088"/>
</g>
<g>
	<rect x="3.144" y="153.159" fill="#BBBDBF" width="51.87" height="2.086"/>
</g>
<g id="decoupe" display="none">
	
		<path display="inline" fill="none" stroke="#ED312D" stroke-width="0.2835" stroke-linecap="round" stroke-linejoin="round" stroke-miterlimit="10" d="
		M17.525,371.131c0,2.613,2.116,4.73,4.732,4.73c2.612,0,4.731-2.117,4.731-4.73s-2.119-4.73-4.731-4.73
		C19.641,366.398,17.525,368.518,17.525,371.131"/>
	
		<path display="inline" fill="none" stroke="#ED312D" stroke-width="0.2835" stroke-linecap="round" stroke-linejoin="round" stroke-miterlimit="10" d="
		M17.525,8.873c0,2.613,2.116,4.731,4.732,4.731c2.612,0,4.731-2.118,4.731-4.731c0-2.614-2.119-4.732-4.731-4.732
		C19.641,4.14,17.525,6.258,17.525,8.873"/>
	
		<rect x="0.078" display="inline" fill="none" stroke="#ED312D" stroke-width="0.2835" stroke-linecap="round" stroke-linejoin="round" stroke-miterlimit="10" width="59.145" height="380.002"/>
	
		<path display="inline" fill="none" stroke="#ED312D" stroke-width="0.2835" stroke-linecap="round" stroke-linejoin="round" stroke-miterlimit="10" d="
		M33.499,328.547c0,5.146,4.171,9.316,9.313,9.316c5.146,0,9.312-4.172,9.312-9.316s-4.169-9.314-9.312-9.314
		C37.67,319.23,33.499,323.402,33.499,328.547"/>
	
		<path display="inline" fill="none" stroke="#ED312D" stroke-width="0.2835" stroke-linecap="round" stroke-linejoin="round" stroke-miterlimit="10" d="
		M7.175,328.547c0,5.146,4.17,9.316,9.315,9.316c5.145,0,9.314-4.172,9.314-9.316s-4.169-9.314-9.314-9.314
		C11.345,319.232,7.175,323.402,7.175,328.547"/>
	
		<path display="inline" fill="none" stroke="#ED312D" stroke-width="0.2835" stroke-linecap="round" stroke-linejoin="round" stroke-miterlimit="10" d="
		M33.499,290.99c0,5.146,4.171,9.316,9.313,9.316c5.146,0,9.312-4.177,9.312-9.316c0-5.145-4.169-9.315-9.312-9.315
		C37.669,281.675,33.499,285.846,33.499,290.99"/>
	
		<path display="inline" fill="none" stroke="#ED312D" stroke-width="0.2835" stroke-linecap="round" stroke-linejoin="round" stroke-miterlimit="10" d="
		M7.175,290.99c0,5.146,4.17,9.316,9.315,9.316c5.145,0,9.314-4.177,9.314-9.316c0-5.145-4.169-9.315-9.314-9.315
		C11.345,281.675,7.175,285.846,7.175,290.99"/>
	
		<path display="inline" fill="none" stroke="#ED312D" stroke-width="0.2835" stroke-linecap="round" stroke-linejoin="round" stroke-miterlimit="10" d="
		M24.918,266.578c0,2.613,2.117,4.73,4.731,4.73c2.613,0,4.732-2.117,4.732-4.73c0-2.614-2.119-4.73-4.732-4.73
		S24.918,263.964,24.918,266.578"/>
	
		<path display="inline" fill="none" stroke="#ED312D" stroke-width="0.2835" stroke-linecap="round" stroke-linejoin="round" stroke-miterlimit="10" d="
		M33.499,227.145c0,5.146,4.171,9.314,9.313,9.314c5.146,0,9.312-4.171,9.312-9.314c0-5.145-4.169-9.312-9.312-9.312
		C37.67,217.829,33.499,222,33.499,227.145"/>
	
		<path display="inline" fill="none" stroke="#ED312D" stroke-width="0.2835" stroke-linecap="round" stroke-linejoin="round" stroke-miterlimit="10" d="
		M7.175,227.145c0,5.146,4.17,9.314,9.315,9.314c5.145,0,9.314-4.171,9.314-9.314c0-5.145-4.169-9.312-9.314-9.312
		C11.345,217.83,7.175,222,7.175,227.145"/>
	
		<path display="inline" fill="none" stroke="#ED312D" stroke-width="0.2835" stroke-linecap="round" stroke-linejoin="round" stroke-miterlimit="10" d="
		M33.499,189.587c0,5.144,4.171,9.313,9.313,9.313c5.146,0,9.312-4.17,9.312-9.313c0-5.144-4.169-9.316-9.312-9.316
		C37.669,180.271,33.499,184.443,33.499,189.587"/>
	
		<path display="inline" fill="none" stroke="#ED312D" stroke-width="0.2835" stroke-linecap="round" stroke-linejoin="round" stroke-miterlimit="10" d="
		M7.175,189.587c0,5.144,4.17,9.313,9.315,9.313c5.145,0,9.314-4.17,9.314-9.313c0-5.144-4.169-9.316-9.314-9.316
		C11.345,180.271,7.175,184.443,7.175,189.587"/>
	
		<path display="inline" fill="none" stroke="#ED312D" stroke-width="0.2835" stroke-linecap="round" stroke-linejoin="round" stroke-miterlimit="10" d="
		M24.918,165.175c0,2.613,2.117,4.732,4.731,4.732c2.613,0,4.732-2.119,4.732-4.732c0-2.613-2.119-4.731-4.732-4.731
		S24.918,162.562,24.918,165.175"/>
	
		<path display="inline" fill="none" stroke="#ED312D" stroke-width="0.2835" stroke-linecap="round" stroke-linejoin="round" stroke-miterlimit="10" d="
		M33.499,125.741c0,5.145,4.171,9.316,9.313,9.316c5.146,0,9.312-4.171,9.312-9.316c0-5.144-4.169-9.314-9.312-9.314
		C37.67,116.426,33.499,120.597,33.499,125.741"/>
	
		<path display="inline" fill="none" stroke="#ED312D" stroke-width="0.2835" stroke-linecap="round" stroke-linejoin="round" stroke-miterlimit="10" d="
		M7.175,125.741c0,5.145,4.17,9.316,9.315,9.316c5.145,0,9.314-4.171,9.314-9.316c0-5.144-4.169-9.314-9.314-9.314
		C11.345,116.427,7.175,120.597,7.175,125.741"/>
	
		<path display="inline" fill="none" stroke="#ED312D" stroke-width="0.2835" stroke-linecap="round" stroke-linejoin="round" stroke-miterlimit="10" d="
		M33.499,88.184c0,5.145,4.171,9.315,9.313,9.315c5.146,0,9.312-4.17,9.312-9.315s-4.169-9.314-9.312-9.314
		C37.669,78.87,33.499,83.04,33.499,88.184"/>
	
		<path display="inline" fill="none" stroke="#ED312D" stroke-width="0.2835" stroke-linecap="round" stroke-linejoin="round" stroke-miterlimit="10" d="
		M7.175,88.184c0,5.145,4.17,9.315,9.315,9.315c5.145,0,9.314-4.17,9.314-9.315s-4.169-9.314-9.314-9.314
		C11.345,78.87,7.175,83.04,7.175,88.184"/>
	
		<path display="inline" fill="none" stroke="#ED312D" stroke-width="0.2835" stroke-linecap="round" stroke-linejoin="round" stroke-miterlimit="10" d="
		M24.918,63.773c0,2.613,2.117,4.731,4.731,4.731c2.613,0,4.732-2.118,4.732-4.731s-2.119-4.732-4.732-4.732
		S24.918,61.16,24.918,63.773"/>
</g>
<g id="widgets" display="none">
	
		<rect id="PJ301_11_" x="4.99" y="76.917" display="inline" fill="none" stroke="#000000" stroke-miterlimit="10" width="23" height="23"/>
	
		<rect id="PJ301_9_" x="31.314" y="76.917" display="inline" fill="none" stroke="#000000" stroke-miterlimit="10" width="23" height="23"/>
	
		<rect id="PJ301_10_" x="4.99" y="114.241" display="inline" fill="none" stroke="#000000" stroke-miterlimit="10" width="23" height="23"/>
	
		<rect id="PJ301_8_" x="31.314" y="114.241" display="inline" fill="none" stroke="#000000" stroke-miterlimit="10" width="23" height="23"/>
	
		<rect id="PJ301_4_" x="4.99" y="177.875" display="inline" fill="none" stroke="#000000" stroke-miterlimit="10" width="23" height="23"/>
	
		<rect id="PJ301_3_" x="31.314" y="177.875" display="inline" fill="none" stroke="#000000" stroke-miterlimit="10" width="23" height="23"/>
	
		<rect id="PJ301_2_" x="4.99" y="215.2" display="inline" fill="none" stroke="#000000" stroke-miterlimit="10" width="23" height="23"/>
	
		<rect id="PJ301_1_" x="31.314" y="215.2" display="inline" fill="none" stroke="#000000" stroke-miterlimit="10" width="23" height="23"/>
	
		<rect id="PJ301_12_" x="4.99" y="279.896" display="inline" fill="none" stroke="#000000" stroke-miterlimit="10" width="23" height="23"/>
	
		<rect id="PJ301_7_" x="31.314" y="279.896" display="inline" fill="none" stroke="#000000" stroke-miterlimit="10" width="23" height="23"/>
	
		<rect id="PJ301_6_" x="4.99" y="317.223" display="inline" fill="none" stroke="#000000" stroke-miterlimit="10" width="23" height="23"/>
	
		<rect id="PJ301_5_" x="31.314" y="317.223" display="inline" fill="none" stroke="#000000" stroke-miterlimit="10" width="23" height="23"/>
	
		<rect id="SmallLight" x="26.149" y="60.272" display="inline" fill="none" stroke="#000000" stroke-miterlimit="10" width="7" height="7"/>
	
		<rect id="SmallLight_1_" x="26.149" y="161.676" display="inline" fill="none" stroke="#000000" stroke-miterlimit="10" width="7" height="7"/>
	
		<rect id="SmallLight_2_" x="26.149" y="263.078" display="inline" fill="none" stroke="#000000" stroke-miterlimit="10" width="7" height="7"/>
</g>
<line fill="none" stroke="#000000" stroke-miterlimit="10" x1="15.759" y1="306.982" x2="15.759" y2="277.482"/>
<line fill="none" stroke="#000000" stroke-miterlimit="10" x1="44.109" y1="306.982" x2="44.109" y2="277.482"/>
<line fill="none" stroke="#000000" stroke-miterlimit="10" x1="15.759" y1="277.482" x2="21.534" y2="277.482"/>
<line fill="none" stroke="#000000" stroke-miterlimit="10" x1="21.534" y1="277.404" x2="23.035" y2="273.987"/>
<line fill="none" stroke="#000000" stroke-miterlimit="10" x1="26.037" y1="280.82" x2="23.035" y2="273.987"/>
<line fill="none" stroke="#000000" stroke-miterlimit="10" x1="26.036" y1="280.82" x2="29.038" y2="273.987"/>
<line fill="none" stroke="#000000" stroke-miterlimit="10" x1="32.04" y1="280.82" x2="29.038" y2="273.987"/>
<line fill="none" stroke="#000000" stroke-miterlimit="10" x1="32.04" y1="280.82" x2="35.043" y2="273.987"/>
<line fill="none" stroke="#000000" stroke-miterlimit="10" x1="38.046" y1="280.82" x2="35.043" y2="273.987"/>
<line fill="none" stroke="#000000" stroke-miterlimit="10" x1="38.047" y1="280.82" x2="39.834" y2="277.404"/>
<line fill="none" stroke="#000000" stroke-miterlimit="10" x1="39.834" y1="277.482" x2="44.104" y2="277.482"/>
<g>
	<path fill="#231F20" d="M39.241,249.926c-0.418,0.418-0.925,0.646-1.603,0.646c-0.682,0-1.191-0.229-1.609-0.646
		c-0.604-0.604-0.584-1.344-0.584-2.369c0-1.024-0.021-1.768,0.584-2.367c0.418-0.418,0.934-0.651,1.609-0.651
		c0.674,0,1.185,0.233,1.603,0.651c0.602,0.601,0.593,1.343,0.593,2.367C39.834,248.584,39.843,249.324,39.241,249.926z
		 M38.382,245.891c-0.165-0.195-0.424-0.318-0.741-0.318c-0.312,0-0.584,0.123-0.75,0.318c-0.227,0.246-0.285,0.523-0.285,1.664
		c0,1.146,0.062,1.42,0.285,1.67c0.166,0.191,0.438,0.318,0.75,0.318c0.317,0,0.576-0.127,0.741-0.318
		c0.226-0.25,0.293-0.524,0.293-1.67C38.675,246.416,38.607,246.137,38.382,245.891z"/>
	<path fill="#231F20" d="M43.113,250.576c-1.217,0-2.188-0.824-2.188-2.085v-3.903h1.159v3.86c0,0.685,0.398,1.095,1.023,1.095
		s1.035-0.41,1.035-1.095v-3.86h1.148v3.903C45.301,249.752,44.333,250.576,43.113,250.576z"/>
	<path fill="#231F20" d="M48.863,245.623v4.904h-1.158v-4.904h-1.553v-1.035h4.263v1.035H48.863z"/>
</g>
<g>
	<path fill="#231F20" d="M12.942,250.527v-5.939h1.159v5.939H12.942z"/>
	<path fill="#231F20" d="M19,250.527l-2.354-3.646v3.646h-1.159v-5.939h1.035l2.352,3.643v-3.643h1.159v5.939H19z"/>
</g>
<line fill="none" stroke="#000000" stroke-miterlimit="10" x1="15.759" y1="226.936" x2="15.759" y2="197.436"/>
<line fill="none" stroke="#000000" stroke-miterlimit="10" x1="44.109" y1="226.936" x2="44.109" y2="197.436"/>
<line fill="none" stroke="#000000" stroke-miterlimit="10" x1="15.759" y1="197.436" x2="21.534" y2="197.436"/>
<line fill="none" stroke="#000000" stroke-miterlimit="10" x1="21.534" y1="197.357" x2="23.035" y2="193.939"/>
<line fill="none" stroke="#000000" stroke-miterlimit="10" x1="26.037" y1="200.773" x2="23.035" y2="193.939"/>
<line fill="none" stroke="#000000" stroke-miterlimit="10" x1="26.036" y1="200.773" x2="29.038" y2="193.939"/>
<line fill="none" stroke="#000000" stroke-miterlimit="10" x1="32.04" y1="200.773" x2="29.038" y2="193.939"/>
<line fill="none" stroke="#000000" stroke-miterlimit="10" x1="32.04" y1="200.773" x2="35.043" y2="193.939"/>
<line fill="none" stroke="#000000" stroke-miterlimit="10" x1="38.046" y1="200.773" x2="35.043" y2="193.939"/>
<line fill="none" stroke="#000000" stroke-miterlimit="10" x1="38.047" y1="200.773" x2="39.834" y2="197.357"/>
<line fill="none" stroke="#000000" stroke-miterlimit="10" x1="39.834" y1="197.436" x2="44.104" y2="197.436"/>
<g>
	<path fill="#231F20" d="M39.241,146.863c-0.418,0.418-0.925,0.646-1.603,0.646c-0.682,0-1.191-0.23-1.609-0.646
		c-0.604-0.604-0.584-1.344-0.584-2.37c0-1.024-0.021-1.767,0.584-2.367c0.418-0.418,0.934-0.651,1.609-0.651
		c0.674,0,1.185,0.233,1.603,0.651c0.602,0.601,0.593,1.343,0.593,2.367C39.834,145.521,39.843,146.262,39.241,146.863z
		 M38.382,142.827c-0.165-0.194-0.424-0.318-0.741-0.318c-0.312,0-0.584,0.124-0.75,0.318c-0.227,0.247-0.285,0.524-0.285,1.665
		c0,1.145,0.062,1.42,0.285,1.67c0.166,0.191,0.438,0.318,0.75,0.318c0.317,0,0.576-0.127,0.741-0.318
		c0.226-0.25,0.293-0.525,0.293-1.67C38.675,143.354,38.607,143.074,38.382,142.827z"/>
	<path fill="#231F20" d="M43.113,147.514c-1.217,0-2.188-0.825-2.188-2.085v-3.903h1.159v3.86c0,0.685,0.398,1.095,1.023,1.095
		s1.035-0.41,1.035-1.095v-3.86h1.148v3.903C45.301,146.689,44.333,147.514,43.113,147.514z"/>
	<path fill="#231F20" d="M48.863,142.561v4.904h-1.158v-4.904h-1.553v-1.035h4.263v1.035H48.863z"/>
</g>
<g>
	<path fill="#231F20" d="M12.942,147.465v-5.939h1.159v5.939H12.942z"/>
	<path fill="#231F20" d="M19,147.465l-2.354-3.646v3.646h-1.159v-5.939h1.035l2.352,3.642v-3.642h1.159v5.939H19z"/>
</g>
<line fill="none" stroke="#000000" stroke-miterlimit="10" x1="15.759" y1="123.872" x2="15.759" y2="94.371"/>
<line fill="none" stroke="#000000" stroke-miterlimit="10" x1="36.102" y1="108.376" x2="36.102" y2="101.374"/>
<line fill="none" stroke="#000000" stroke-miterlimit="10" x1="15.759" y1="94.371" x2="27.537" y2="94.371"/>
<line fill="none" stroke="#000000" stroke-miterlimit="10" x1="36.102" y1="65.352" x2="18.761" y2="65.353"/>
<g>
	<g>
		<line fill="none" stroke="#000000" stroke-miterlimit="10" x1="34.497" y1="190.495" x2="26.5" y2="205.251"/>
		<g>
			<polygon points="32.92,190.167 35.541,188.53 35.649,191.62 			"/>
		</g>
	</g>
</g>
<circle fill="none" stroke="#000000" stroke-miterlimit="10" cx="30.684" cy="94.402" r="9.15"/>
<line fill="none" stroke="#000000" stroke-miterlimit="10" x1="27.765" y1="99.868" x2="27.765" y2="88.375"/>
<line fill="none" stroke="#000000" stroke-miterlimit="10" x1="36.102" y1="86.85" x2="36.102" y2="65.352"/>
<line fill="none" stroke="#000000" stroke-miterlimit="10" x1="36.102" y1="86.85" x2="27.765" y2="91.25"/>
<g>
	<g>
		<line fill="none" stroke="#000000" stroke-miterlimit="10" x1="32.369" y1="99.528" x2="27.765" y2="97.25"/>
		<g>
			<polygon points="32.141,97.891 36.102,101.374 30.93,100.339 			"/>
		</g>
	</g>
</g>
<line fill="none" stroke="#000000" stroke-miterlimit="10" x1="44.109" y1="123.872" x2="44.109" y2="108.376"/>
<line fill="none" stroke="#000000" stroke-miterlimit="10" x1="36.102" y1="108.376" x2="44.109" y2="108.376"/>
<g>
	<path fill="none" stroke="#000000" stroke-width="0.5" stroke-miterlimit="10" d="M23.731,345.585h1.512l0.084-0.966
		c0.231-2.498,1.533-4.409,4.031-4.409c0.525,0,1.008,0.104,1.323,0.252l-0.357,2.036c-0.252-0.084-0.525-0.125-0.798-0.125
		c-0.987,0-1.428,0.944-1.575,2.204l-0.105,1.008h1.911v2.12h-2.058l-0.378,3.863c-0.21,2.227-0.987,4.137-3.59,4.137
		c-0.567,0-1.134-0.126-1.491-0.336l0.378-1.974c0.252,0.104,0.588,0.168,0.798,0.168c0.588,0,1.134-0.399,1.302-2.079l0.378-3.779
		h-1.365V345.585z"/>
	<path fill="none" stroke="#000000" stroke-width="0.5" stroke-miterlimit="10" d="M37.737,353.857
		c-0.273,0.126-0.966,0.294-1.743,0.294c-2.604,0-4.304-1.806-4.304-5.165c0-3.17,1.868-5.375,4.703-5.375
		c0.65,0,1.238,0.146,1.512,0.273l-0.357,2.162c-0.23-0.084-0.566-0.189-1.028-0.189c-1.323,0-2.1,1.26-2.1,3.045
		c0,1.869,0.776,3.002,2.058,3.002c0.398,0,0.734-0.062,1.028-0.209L37.737,353.857z"/>
</g>
<g>
	<path fill="#E6E6E6" stroke="#000000" stroke-width="0.5" stroke-miterlimit="10" d="M25.752,27.076
		c0.984-0.191,2.232-0.312,3.432-0.312c1.729,0,3.265,0.239,4.321,1.2c0.984,0.888,1.272,1.968,1.272,3.359
		c0,1.729-0.841,3.289-2.496,4.057v0.048c1.104,0.433,1.655,1.465,1.968,3.192c0.312,1.801,0.744,3.793,1.032,4.393h-3.288
		c-0.192-0.456-0.553-2.088-0.792-3.864c-0.288-2.017-0.793-2.593-1.849-2.593h-0.456v6.457h-3.145V27.076z M28.896,34.132h0.552
		c1.368,0,2.16-1.104,2.16-2.521c0-1.368-0.552-2.352-1.968-2.399c-0.264,0-0.576,0.023-0.744,0.096V34.132z"/>
</g>
<rect x="-93.563" y="26.405" fill="none" width="47" height="35.001"/>
<text transform="matrix(1 0 0 1 -75.7031 43.0132)" stroke="#000000" stroke-miterlimit="10" font-family="'MyriadPro-BoldCond'" font-size="24">R</text>
</svg>
